<svg xmlns="http://www.w3.org/2000/svg" width="48" height="48" viewBox="0 0 48 48">
  <path fill="#4A4A4A" fill-rule="evenodd" d="M31.6101867,29.1564267 L35.7093867,33.2486933 C36.42672,33.9638933 36.4549867,35.0956267 35.7744533,35.7750933 C35.09392,36.4550933 33.9605867,36.4262933 33.2437867,35.71056 L29.1440533,31.6182933 C28.5909867,31.06576 28.45232,30.26896 28.7280533,29.6188267 L28.06032,28.9532267 C26.2085867,30.5740267 23.8976533,31.3958933 21.5813867,31.3958933 C19.0608533,31.3958933 16.5408533,30.4358933 14.61712,28.5158933 C10.7728533,24.67696 10.7712533,18.4518933 14.61712,14.6124267 C16.4752533,12.7580267 18.8928533,11.8070933 21.3280533,11.7334933 C21.37232,11.7334933 21.41552,11.7382933 21.4597867,11.7388267 C21.50032,11.7382933 21.5408533,11.7334933 21.58192,11.74416 C24.2549867,11.80176 26.68112,12.75216 28.5445867,14.6124267 C32.24912,18.3110933 32.3744533,24.21456 28.9429867,28.07536 L29.6085867,28.73936 C30.25872,28.4652267 31.05712,28.6044267 31.6101867,29.1564267 Z M21.5813867,29.2108267 C19.53552,29.2108267 17.6117867,28.4156267 16.1648533,26.97136 C13.1792533,23.9894933 13.1792533,19.1382933 16.16432,16.1574933 C17.58352,14.7414933 19.46032,13.9548267 21.4608533,13.9238933 C23.7008533,13.9548267 25.57872,14.7414933 26.9973867,16.1574933 C29.98352,19.1382933 29.98352,23.9894933 26.9973867,26.97136 C25.5504533,28.4156267 23.6272533,29.2108267 21.5813867,29.2108267 Z M18.89232,22.65632 L24.3637867,22.65632 C24.96752,22.65632 25.4576533,22.1672533 25.4576533,21.5640533 C25.4576533,20.9608533 24.96752,20.4717867 24.3637867,20.4717867 L18.89232,20.4717867 C18.2880533,20.4717867 17.79792,20.9608533 17.79792,21.5640533 C17.79792,22.1672533 18.2880533,22.65632 18.89232,22.65632 Z"/>
</svg>
