<svg xmlns="http://www.w3.org/2000/svg" width="48" height="48" viewBox="0 0 48 48">
    <path fill="#4A4A4A" fill-rule="evenodd" d="M31.61 29.156l4.1 4.093c.717.715.745 1.847.064 2.526-.68.68-1.813.651-2.53-.064l-4.1-4.093a1.827 1.827 0 0 1-.416-2l-.668-.665a9.823 9.823 0 0 1-6.479 2.443c-2.52 0-5.04-.96-6.964-2.88a9.82 9.82 0 0 1 0-13.904 9.882 9.882 0 0 1 6.711-2.879c.044 0 .088.005.132.006.04 0 .08-.006.122.005 2.673.058 5.1 1.008 6.963 2.868 3.704 3.7 3.83 9.603.398 13.463l.666.664c.65-.274 1.448-.135 2.001.417zm-10.029.055a7.617 7.617 0 0 1-5.416-2.24c-2.986-2.982-2.986-7.833 0-10.814a7.614 7.614 0 0 1 5.296-2.233c2.24.03 4.118.817 5.536 2.233 2.987 2.981 2.987 7.832 0 10.814a7.616 7.616 0 0 1-5.416 2.24zm-2.689-6.555h5.472a1.093 1.093 0 1 0 0-2.184h-5.472a1.093 1.093 0 1 0 0 2.184z"/>
</svg>
