<?xml version="1.0" encoding="UTF-8"?>
<svg width="26px" height="26px" viewBox="0 0 26 26" version="1.1" xmlns="http://www.w3.org/2000/svg" xmlns:xlink="http://www.w3.org/1999/xlink">
    <!-- Generator: Sketch 51.2 (57519) - http://www.bohemiancoding.com/sketch -->
    <title>icon/eInk/reader_toolbar_zoomin</title>
    <desc>Created with Sketch.</desc>
    <defs>
        <path d="M26.9968533,26.97136 C25.5504533,28.4156267 23.6272533,29.2108267 21.58192,29.2108267 C19.53552,29.2108267 17.6117867,28.4156267 16.1648533,26.97136 C13.1792533,23.9894933 13.1792533,19.1382933 16.1648533,16.1574933 C17.5952533,14.7292267 19.4928533,13.9388267 21.5136533,13.9212267 C23.6688533,13.9388267 25.5664533,14.7292267 26.9968533,16.1574933 C29.9840533,19.1382933 29.9840533,23.9894933 26.9968533,26.97136 M35.7093867,33.2486933 C36.42672,33.9638933 36.45552,35.0956267 35.7749867,35.7756267 C35.0944533,36.4550933 33.9605867,36.4262933 33.2437867,35.71056 L29.1440533,31.6182933 C28.5909867,31.06576 28.45232,30.26896 28.7280533,29.6188267 L28.0608533,28.9532267 C26.2080533,30.5740267 23.89712,31.3958933 21.58192,31.3958933 C19.0608533,31.3958933 16.5408533,30.4358933 14.6176533,28.5158933 C10.77232,24.67696 10.77232,18.4518933 14.6176533,14.6124267 C16.50512,12.7286933 18.9680533,11.7750933 21.44112,11.73936 L21.44112,11.7334933 C21.4656533,11.7334933 21.48912,11.7366933 21.5125867,11.7366933 C21.53552,11.7366933 21.55792,11.7334933 21.5808533,11.7334933 L21.58192,11.7334933 L21.58192,11.73936 C24.18992,11.7740267 26.6565867,12.7276267 28.5445867,14.6124267 C32.24912,18.3110933 32.3744533,24.2150933 28.9429867,28.07536 L29.6080533,28.73936 C30.25872,28.4652267 31.05712,28.6044267 31.6101867,29.1564267 L35.7093867,33.2486933 Z M20.4869867,18.8338667 L20.4869867,20.4717333 L18.84592,20.4717333 C18.2416533,20.4717333 17.75152,20.9608 17.75152,21.564 C17.75152,22.1672 18.2416533,22.6562667 18.84592,22.6562667 L20.4869867,22.6562667 L20.4869867,24.2952 C20.4869867,24.8989333 20.97712,25.3874667 21.5813867,25.3874667 C22.1856533,25.3874667 22.6757867,24.8989333 22.6757867,24.2952 L22.6757867,22.6562667 L24.3173867,22.6562667 C24.92112,22.6562667 25.41072,22.1672 25.41072,21.564 C25.41072,20.9608 24.92112,20.4717333 24.3173867,20.4717333 L22.6757867,20.4717333 L22.6757867,18.8338667 C22.6757867,18.2306667 22.1856533,17.7416 21.5813867,17.7416 C20.97712,17.7416 20.4869867,18.2306667 20.4869867,18.8338667 Z" id="path-1"></path>
    </defs>
    <g id="Symbol-Instance-Sheet-[Current-Document]" stroke="none" stroke-width="1" fill="none" fill-rule="evenodd">
        <g id="reader" transform="translate(-543.000000, -114.000000)">
            <g id="icon/eInk/reader_toolbar_zoomin" transform="translate(532.000000, 103.000000)">
                <mask id="mask-2" fill="white">
                    <use xlink:href="#path-1"></use>
                </mask>
                <use id="Mask" fill="#FFFFFF" fill-rule="evenodd" xlink:href="#path-1"></use>
                <g id="🎨color/reader_main" mask="url(#mask-2)" fill="#575757" fill-rule="nonzero">
                    <rect id="Rectangle-4" x="0" y="0" width="48" height="48"></rect>
                </g>
            </g>
        </g>
    </g>
</svg>