<svg xmlns="http://www.w3.org/2000/svg" xmlns:xlink="http://www.w3.org/1999/xlink" width="80" height="80" viewBox="0 0 80 80">
    <defs>
        <path id="a" d="M26.997 26.971a7.614 7.614 0 0 1-5.415 2.24 7.618 7.618 0 0 1-5.417-2.24c-2.986-2.982-2.986-7.833 0-10.814a7.613 7.613 0 0 1 5.349-2.236c2.155.018 4.052.808 5.483 2.236 2.987 2.981 2.987 7.832 0 10.814m8.712 6.278c.718.715.747 1.847.066 2.527-.68.68-1.814.65-2.531-.065l-4.1-4.093a1.827 1.827 0 0 1-.416-2l-.667-.665a9.827 9.827 0 0 1-6.48 2.443 9.826 9.826 0 0 1-6.963-2.88 9.82 9.82 0 0 1 0-13.904 9.824 9.824 0 0 1 6.823-2.873v-.006c.025 0 .048.004.072.004.023 0 .045-.004.068-.004v.006c2.609.035 5.076.989 6.964 2.873 3.704 3.7 3.83 9.603.398 13.463l.665.664a1.837 1.837 0 0 1 2.002.417l4.1 4.093zM20.487 18.834v1.638h-1.641a1.093 1.093 0 1 0 0 2.184h1.641v1.64c0 .603.49 1.091 1.094 1.091.605 0 1.095-.488 1.095-1.092v-1.639h1.641a1.093 1.093 0 1 0 0-2.184h-1.641v-1.638a1.093 1.093 0 0 0-2.189 0z"/>
    </defs>
    <g fill="none" fill-rule="evenodd">
        <mask id="b" fill="#fff">
            <use xlink:href="#a"/>
        </mask>
        <use fill="#FFF" xlink:href="#a"/>
        <g fill="#7A7A7A" fill-rule="nonzero" mask="url(#b)">
            <path d="M0 0h48v48H0z"/>
        </g>
    </g>
</svg>
