<svg xmlns="http://www.w3.org/2000/svg" xmlns:xlink="http://www.w3.org/1999/xlink" width="37" height="37" viewBox="0 0 37 37">
  <defs>
    <path id="reader_toolbar_zoomin-copy-a" d="M39.3704111,39.3332333 C37.2610778,41.4394556 34.4564111,42.5991222 31.4736333,42.5991222 C28.4893,42.5991222 25.6838556,41.4394556 23.5737444,39.3332333 C19.2197444,34.9846778 19.2197444,27.9100111 23.5737444,23.5630111 C25.6597444,21.4801222 28.4270778,20.3274556 31.3740778,20.3017889 C34.5170778,20.3274556 37.2844111,21.4801222 39.3704111,23.5630111 C43.7267444,27.9100111 43.7267444,34.9846778 39.3704111,39.3332333 M52.0761889,48.4876778 C53.1223,49.5306778 53.1643,51.1811222 52.1718556,52.1727889 C51.1794111,53.1636778 49.5258556,53.1216778 48.4805222,52.0779 L42.5017444,46.1100111 C41.6951889,45.3042333 41.4929667,44.1422333 41.8950778,43.1941222 L40.9220778,42.2234556 C38.2200778,44.5871222 34.8499667,45.7856778 31.4736333,45.7856778 C27.7970778,45.7856778 24.1220778,44.3856778 21.3174111,41.5856778 C15.7096333,35.9872333 15.7096333,26.9090111 21.3174111,21.3097889 C24.0699667,18.5626778 27.6617444,17.1720111 31.2683,17.1199 L31.2683,17.1113444 C31.3040778,17.1113444 31.3383,17.1160111 31.3725222,17.1160111 C31.4059667,17.1160111 31.4386333,17.1113444 31.4720778,17.1113444 L31.4736333,17.1113444 L31.4736333,17.1199 C35.2769667,17.1704556 38.8741889,18.5611222 41.6275222,21.3097889 C47.0299667,26.7036778 47.2127444,35.3136778 42.2085222,40.9432333 L43.1784111,41.9115667 C44.1273,41.5117889 45.2916333,41.7147889 46.0981889,42.5197889 L52.0761889,48.4876778 Z M29.8768556,27.4660556 L29.8768556,29.8546111 L27.4836333,29.8546111 C26.6024111,29.8546111 25.8876333,30.5678333 25.8876333,31.4475 C25.8876333,32.3271667 26.6024111,33.0403889 27.4836333,33.0403889 L29.8768556,33.0403889 L29.8768556,35.4305 C29.8768556,36.3109444 30.5916333,37.0233889 31.4728556,37.0233889 C32.3540778,37.0233889 33.0688556,36.3109444 33.0688556,35.4305 L33.0688556,33.0403889 L35.4628556,33.0403889 C36.3433,33.0403889 37.0573,32.3271667 37.0573,31.4475 C37.0573,30.5678333 36.3433,29.8546111 35.4628556,29.8546111 L33.0688556,29.8546111 L33.0688556,27.4660556 C33.0688556,26.5863889 32.3540778,25.8731667 31.4728556,25.8731667 C30.5916333,25.8731667 29.8768556,26.5863889 29.8768556,27.4660556 Z"/>
  </defs>
  <g fill="none" fill-rule="evenodd" transform="translate(-16.625 -16.625)">
    <mask id="reader_toolbar_zoomin-copy-b" fill="#fff">
      <use xlink:href="#reader_toolbar_zoomin-copy-a"/>
    </mask>
    <use fill="#FFF" xlink:href="#reader_toolbar_zoomin-copy-a"/>
    <g fill="#575757" fill-rule="nonzero" mask="url(#reader_toolbar_zoomin-copy-b)">
      <rect width="70" height="70"/>
    </g>
  </g>
</svg>
