<svg xmlns="http://www.w3.org/2000/svg" xmlns:xlink="http://www.w3.org/1999/xlink" width="48" height="48" viewBox="0 0 48 48">
    <defs>
        <path id="a" d="M19.994 18.421v14.082c0 .397-.155.778-.436 1.058A1.498 1.498 0 0 1 17 32.504V17.4C17.001 15.54 18.508 14 20.368 14h4.127c3.588.005 6.505 2.913 6.505 6.495a6.504 6.504 0 0 1-3.21 5.597l3.653 6.324c.033.058.029.13-.012.183a.164.164 0 0 1-.173.061l-1.645-.415-.462 1.632a.169.169 0 0 1-.14.12.164.164 0 0 1-.165-.083l-4.653-8.06a1.507 1.507 0 0 1 1.307-2.26 2.176 2.176 0 0 0 1.469-.635 3.494 3.494 0 0 0-2.475-5.964l-3.389.003c-.733.055-1.094.66-1.11 1.423z"/>
        <filter id="b" width="141.5%" height="130%" x="-20.7%" y="-15%" filterUnits="objectBoundingBox">
            <feGaussianBlur in="SourceAlpha" result="shadowBlurInner1" stdDeviation="2"/>
            <feOffset dy="2" in="shadowBlurInner1" result="shadowOffsetInner1"/>
            <feComposite in="shadowOffsetInner1" in2="SourceAlpha" k2="-1" k3="1" operator="arithmetic" result="shadowInnerInner1"/>
            <feColorMatrix in="shadowInnerInner1" values="0 0 0 0 0.76 0 0 0 0 0.76 0 0 0 0 0.76 0 0 0 1 0"/>
        </filter>
    </defs>
    <g fill="none" fill-rule="nonzero">
        <use fill="#F5F5F5" xlink:href="#a"/>
        <use fill="#000" filter="url(#b)" xlink:href="#a"/>
    </g>
</svg>
