<svg xmlns="http://www.w3.org/2000/svg" xmlns:xlink="http://www.w3.org/1999/xlink" width="70" height="70" viewBox="0 0 70 70">
    <defs>
        <path id="a" d="M39.37 39.333a11.103 11.103 0 0 1-7.896 3.266c-2.985 0-5.79-1.16-7.9-3.266-4.354-4.348-4.354-11.423 0-15.77a11.102 11.102 0 0 1 7.8-3.261c3.143.025 5.91 1.178 7.996 3.261 4.357 4.347 4.357 11.422 0 15.77m12.706 9.155c1.046 1.043 1.088 2.693.096 3.685-.993.99-2.646.949-3.691-.095L42.5 46.11c-.806-.806-1.008-1.968-.606-2.916l-.973-.97a14.331 14.331 0 0 1-9.448 3.562c-3.677 0-7.352-1.4-10.157-4.2-5.607-5.599-5.607-14.677 0-20.276a14.327 14.327 0 0 1 9.951-4.19v-.009c.036 0 .07.005.105.005.033 0 .066-.005.1-.005v.009c3.804.05 7.401 1.441 10.155 4.19 5.402 5.394 5.585 14.004.58 19.633l.97.969c.95-.4 2.114-.197 2.92.608l5.978 5.968zm-22.2-21.022v2.389h-2.392c-.882 0-1.596.713-1.596 1.593s.714 1.592 1.596 1.592h2.393v2.39c0 .88.715 1.593 1.596 1.593.881 0 1.596-.712 1.596-1.593v-2.39h2.394a1.594 1.594 0 1 0 0-3.185h-2.394v-2.389c0-.88-.715-1.593-1.596-1.593-.881 0-1.596.713-1.596 1.593z"/>
    </defs>
    <g fill="none" fill-rule="evenodd">
        <mask id="b" fill="#fff">
            <use xlink:href="#a"/>
        </mask>
        <use fill="#FFF" xlink:href="#a"/>
        <g fill="#575757" fill-rule="nonzero" mask="url(#b)">
            <path d="M0 0h70v70H0z"/>
        </g>
    </g>
</svg>
