<svg xmlns="http://www.w3.org/2000/svg" xmlns:xlink="http://www.w3.org/1999/xlink" width="80" height="80" viewBox="0 0 80 80">
    <defs>
        <path id="a" d="M44.995 44.952a12.69 12.69 0 0 1-9.025 3.733c-3.41 0-6.617-1.326-9.029-3.733-4.976-4.97-4.976-13.055 0-18.023a12.688 12.688 0 0 1 8.915-3.727c3.592.03 6.755 1.347 9.139 3.727 4.978 4.968 4.978 13.053 0 18.023m14.52 10.462c1.196 1.192 1.244 3.079.11 4.212-1.134 1.132-3.024 1.084-4.219-.108l-6.833-6.82c-.921-.922-1.152-2.25-.693-3.333l-1.112-1.11a16.378 16.378 0 0 1-10.798 4.071c-4.202 0-8.402-1.6-11.607-4.8-6.41-6.398-6.41-16.773 0-23.172 3.146-3.14 7.25-4.729 11.372-4.788v-.01c.041 0 .08.005.12.005.038 0 .075-.005.113-.005h.002v.01c4.347.057 8.458 1.647 11.604 4.788 6.175 6.164 6.383 16.004.664 22.438l1.109 1.107c1.084-.457 2.415-.225 3.337.695l6.832 6.82zM34.146 31.39v2.73H31.41a1.822 1.822 0 0 0-1.824 1.82c0 1.005.817 1.82 1.824 1.82h2.735v2.732c0 1.006.817 1.82 1.824 1.82a1.822 1.822 0 0 0 1.824-1.82V37.76h2.736a1.821 1.821 0 1 0 0-3.64h-2.736v-2.73c0-1.006-.817-1.82-1.824-1.82a1.822 1.822 0 0 0-1.824 1.82z"/>
    </defs>
    <g fill="none" fill-rule="evenodd">
        <mask id="b" fill="#fff">
            <use xlink:href="#a"/>
        </mask>
        <use fill="#FFF" xlink:href="#a"/>
        <g fill="#575757" fill-rule="nonzero" mask="url(#b)">
            <path d="M0 0h80v80H0z"/>
        </g>
    </g>
</svg>
