<svg xmlns="http://www.w3.org/2000/svg" xmlns:xlink="http://www.w3.org/1999/xlink" width="48" height="48" viewBox="0 0 48 48">
    <defs>
        <path id="a" d="M35.71 33.249c.717.715.745 1.847.064 2.526-.68.68-1.813.651-2.53-.064l-4.1-4.093a1.827 1.827 0 0 1-.416-2l-.668-.665a9.823 9.823 0 0 1-6.479 2.443c-2.52 0-5.04-.96-6.964-2.88a9.82 9.82 0 0 1 6.711-16.77v-.013c.044 0 .088.005.132.006.04 0 .08-.006.121-.006v.011c2.674.058 5.1 1.008 6.964 2.868 3.704 3.7 3.83 9.603.398 13.463l.666.664c.65-.274 1.448-.135 2.001.417l4.1 4.093zm-8.713-6.278c2.987-2.982 2.987-7.833 0-10.814-1.418-1.416-3.296-2.202-5.536-2.233-2 .03-3.877.817-5.297 2.233-2.985 2.981-2.985 7.832 0 10.814a7.617 7.617 0 0 0 5.417 2.24c2.046 0 3.97-.795 5.416-2.24zm-9.2-5.407c0-.603.491-1.092 1.095-1.092h5.472a1.093 1.093 0 1 1 0 2.184h-5.472c-.604 0-1.094-.489-1.094-1.092z"/>
    </defs>
    <g fill="none" fill-rule="evenodd">
        <mask id="b" fill="#fff">
            <use xlink:href="#a"/>
        </mask>
        <use fill="#FFF" xlink:href="#a"/>
        <g fill="#575757" fill-rule="nonzero" mask="url(#b)">
            <path d="M0 0h48v48H0z"/>
        </g>
    </g>
</svg>
