<svg xmlns="http://www.w3.org/2000/svg" xmlns:xlink="http://www.w3.org/1999/xlink" width="48" height="48" shape-rendering="geometricPrecision" viewBox="0 0 48 48">
    <defs>
        <path id="a" d="M35.455 33.047c.702.7.73 1.807.063 2.472-.665.665-1.774.637-2.475-.063l-4.01-4.003a1.788 1.788 0 0 1-.408-1.956l-.653-.652a9.61 9.61 0 0 1-6.338 2.39c-2.466 0-4.931-.94-6.813-2.817a9.607 9.607 0 0 1 6.565-16.406V12c.043 0 .086.005.129.005.04 0 .08-.005.119-.005v.01c2.615.057 4.989.987 6.812 2.806 3.624 3.619 3.746 9.394.39 13.17l.65.65a1.796 1.796 0 0 1 1.959.408l4.01 4.003zm-8.523-6.14c2.921-2.917 2.921-7.663 0-10.58-1.388-1.384-3.225-2.154-5.416-2.184-1.957.03-3.793.8-5.181 2.185-2.92 2.916-2.92 7.662 0 10.579a7.452 7.452 0 0 0 5.299 2.19 7.45 7.45 0 0 0 5.298-2.19zm-9-5.29c0-.59.48-1.069 1.071-1.069h5.353a1.07 1.07 0 1 1 0 2.137h-5.353a1.07 1.07 0 0 1-1.07-1.068z"/>
    </defs>
    <g fill="none" fill-rule="evenodd">
        <mask id="b" fill="#FFF">
            <use xlink:href="#a"/>
        </mask>
        <use fill="#FFF" xlink:href="#a"/>
        <g fill="#123456" fill-rule="nonzero" mask="url(#b)">
            <path d="M0 0h48v48H0z"/>
        </g>
    </g>
</svg>
